<svg width="64" height="64" viewBox="0 0 64 64" fill="none" xmlns="http://www.w3.org/2000/svg">
<path d="M34.1334 3.73327L32.0001 0.887939L29.8667 3.73327L29.856 3.74661L29.8241 3.78927L29.6934 3.96261L29.1867 4.62661C26.6637 7.91121 24.042 11.1189 21.3254 14.2453C19.0187 16.8799 16.6054 19.4506 14.4774 21.3386C13.4107 22.2879 12.4774 23.0106 11.7174 23.4799C11.0614 23.8826 10.7307 23.9733 10.6614 23.9946V23.9893L10.6507 21.3226L5.31738 21.3439L5.32805 24.0106C5.33072 25.0906 5.61072 26.4319 6.55205 27.5493C7.56005 28.7493 9.02672 29.3359 10.6667 29.3359V53.3359H5.33338V58.6693H58.6667V53.3359H53.3334V29.3359C54.9707 29.3359 56.4401 28.7493 57.4481 27.5493C58.3894 26.4293 58.6667 25.0853 58.6667 24.0026V21.3333H53.3334V23.9893C52.9607 23.8691 52.607 23.6967 52.2827 23.4773C51.3038 22.8427 50.3796 22.1273 49.5201 21.3386C47.3947 19.4453 44.9787 16.8773 42.6721 14.2426C39.7674 10.9105 36.9765 7.481 34.3041 3.95994L34.1734 3.78661L34.1414 3.74394L34.1334 3.73327ZM44.5441 23.9999H19.4534C21.5026 22.0041 23.4661 19.9223 25.3387 17.7599C27.6287 15.131 29.8499 12.443 32.0001 9.69861L32.4907 10.3226C34.4869 12.8499 36.5435 15.3288 38.6587 17.7573C40.5312 19.9205 42.4948 22.0033 44.5441 23.9999ZM16 29.3333H48.0001V53.3333H40.0001V45.3333C40.0001 43.2115 39.1572 41.1767 37.6569 39.6764C36.1566 38.1761 34.1218 37.3333 32.0001 37.3333C29.8783 37.3333 27.8435 38.1761 26.3432 39.6764C24.8429 41.1767 24.0001 43.2115 24.0001 45.3333V53.3333H16V29.3333ZM34.6667 53.3333H29.3334V45.3333C29.3334 44.626 29.6143 43.9477 30.1144 43.4476C30.6145 42.9476 31.2928 42.6666 32.0001 42.6666C32.7073 42.6666 33.3856 42.9476 33.8857 43.4476C34.3858 43.9477 34.6667 44.626 34.6667 45.3333V53.3333Z" fill="white"/>
</svg>
