<svg width="24" height="24" viewBox="0 0 24 24" fill="none" xmlns="http://www.w3.org/2000/svg">
<path d="M12 23.25C14.225 23.25 16.4001 22.5902 18.2502 21.354C20.1002 20.1179 21.5422 18.3609 22.3936 16.3052C23.2451 14.2495 23.4679 11.9875 23.0338 9.80524C22.5998 7.62295 21.5283 5.61839 19.955 4.04505C18.3816 2.47171 16.3771 1.40025 14.1948 0.966167C12.0125 0.532083 9.75048 0.754871 7.69481 1.60636C5.63914 2.45784 3.88213 3.89978 2.64597 5.74984C1.4098 7.59989 0.75 9.77496 0.75 12C0.75 13.86 1.2 15.6125 2 17.1588L0.75 23.25L6.84125 22C8.38625 22.7988 10.1413 23.25 12 23.25Z" stroke="black" stroke-width="1.5" stroke-linecap="round" stroke-linejoin="round"/>
</svg>
