<svg width="138" height="138" viewBox="0 0 138 138" fill="none" xmlns="http://www.w3.org/2000/svg">
<circle cx="69" cy="69" r="69" fill="#448DC2"/>
<path d="M25.0002 68.8506C24.9937 69.391 25.1613 69.9191 25.4783 70.3567C25.7953 70.7943 26.2448 71.1183 26.7602 71.2806L68.5482 84.3876C68.9836 84.657 69.4909 84.7868 70.0022 84.7596C70.5122 84.7856 71.0192 84.6556 71.4542 84.3876L113.236 71.2826C115.588 70.5456 115.588 67.2176 113.236 66.4806L71.4512 53.3756C71.0152 53.1056 70.5062 52.9766 69.9952 53.0036C69.4853 52.9775 68.9795 53.1072 68.5452 53.3756L26.7602 66.4796C26.2541 66.6385 25.8114 66.9535 25.4952 67.3794C25.1791 67.8053 25.0058 68.3203 25.0002 68.8506ZM70.2882 79.4776V73.2726C72.5942 73.1206 74.4222 71.2246 74.4222 68.8806C74.4222 66.5366 72.5942 64.6406 70.2882 64.4886V58.0276L104.078 68.8806L70.2882 79.4776Z" fill="white"/>
</svg>
