<svg width="30" height="30" viewBox="0 0 30 30" fill="none" xmlns="http://www.w3.org/2000/svg">
<path d="M0 15.0318C0 12.9524 0.392528 10.9983 1.17758 9.16941C1.96264 7.34054 3.02715 5.74967 4.37111 4.39681C5.71606 3.04394 7.29763 1.97318 9.11582 1.18451C10.934 0.395838 12.8767 0.00100212 14.944 0C18.3313 0 21.3325 0.996108 23.9477 2.98832C26.5629 4.98054 28.3313 7.52943 29.2528 10.635C29.3773 10.9857 29.3091 11.3114 29.0481 11.6121C28.787 11.9127 28.4568 12.063 28.0573 12.063C27.6339 12.063 27.2418 11.9503 26.8812 11.7248C26.5205 11.4993 26.265 11.1862 26.1146 10.7853C25.5417 9.23204 24.6765 7.85412 23.5188 6.65158C22.3611 5.44903 20.9973 4.5346 19.4271 3.90827V4.50954C19.4271 5.33629 19.1347 6.04429 18.5499 6.63354C17.9651 7.22279 17.2613 7.51691 16.4384 7.51591H13.4496V10.5223C13.4496 10.9482 13.3061 11.3054 13.0192 11.594C12.7323 11.8826 12.3776 12.0265 11.9552 12.0254H8.96638V15.0318H10.4608C10.8842 15.0318 11.2394 15.1761 11.5263 15.4647C11.8132 15.7533 11.9562 16.1101 11.9552 16.535V19.5414H10.4608L3.28767 12.3261C3.21295 12.777 3.14471 13.228 3.08294 13.6789C3.02117 14.1299 2.98979 14.5809 2.98879 15.0318C2.98879 18.0883 3.99153 20.7564 5.99701 23.0363C8.00249 25.3161 10.524 26.6314 13.5616 26.9821C13.9601 27.0322 14.2904 27.2016 14.5524 27.4902C14.8144 27.7788 14.945 28.1355 14.944 28.5604C14.944 28.9863 14.8005 29.3436 14.5136 29.6322C14.2266 29.9208 13.8844 30.0396 13.4869 29.9885C9.67621 29.6127 6.47572 28.0093 3.88543 25.1783C1.29514 22.3473 0 18.9651 0 15.0318ZM27.4969 28.2598L23.7609 24.5019C23.2379 24.8025 22.6775 25.053 22.0797 25.2534C21.4819 25.4539 20.8468 25.5541 20.1743 25.5541C18.3064 25.5541 16.7188 24.8967 15.4117 23.5819C14.1046 22.2671 13.4506 20.6697 13.4496 18.7898C13.4496 16.9108 14.1036 15.3139 15.4117 13.9991C16.7198 12.6843 18.3073 12.0265 20.1743 12.0254C22.0423 12.0254 23.6304 12.6833 24.9385 13.9991C26.2466 15.3149 26.9001 16.9118 26.8991 18.7898C26.8991 19.4662 26.7995 20.105 26.6002 20.7063C26.401 21.3076 26.1519 21.8713 25.853 22.3974L29.589 26.1554C29.863 26.4309 30 26.7817 30 27.2076C30 27.6335 29.863 27.9842 29.589 28.2598C29.3151 28.5354 28.9664 28.6732 28.543 28.6732C28.1196 28.6732 27.7709 28.5354 27.4969 28.2598ZM20.1743 22.5477C21.2204 22.5477 22.1046 22.1844 22.8269 21.4579C23.5492 20.7314 23.9103 19.842 23.9103 18.7898C23.9103 17.7375 23.5492 16.8482 22.8269 16.1216C22.1046 15.3951 21.2204 15.0318 20.1743 15.0318C19.1283 15.0318 18.2441 15.3951 17.5218 16.1216C16.7995 16.8482 16.4384 17.7375 16.4384 18.7898C16.4384 19.842 16.7995 20.7314 17.5218 21.4579C18.2441 22.1844 19.1283 22.5477 20.1743 22.5477Z" fill="url(#paint0_linear_32_1326)"/>
<defs>
<linearGradient id="paint0_linear_32_1326" x1="15" y1="0" x2="15" y2="30" gradientUnits="userSpaceOnUse">
<stop stop-color="#51B4E9"/>
<stop offset="1" stop-color="#FF8E00"/>
</linearGradient>
</defs>
</svg>
