<svg width="64" height="64" viewBox="0 0 64 64" fill="none" xmlns="http://www.w3.org/2000/svg">
<path d="M57.927 27V19L54.297 6.75V4.097C54.601 3.923 54.815 3.617 54.815 3.25C54.815 2.883 54.601 2.577 54.297 2.403V1.847C54.601 1.673 54.815 1.367 54.815 1C54.815 0.967 54.808 0.933 54.805 0.9C54.7766 1.09635 54.6777 1.27565 54.5269 1.40446C54.376 1.53327 54.1834 1.60277 53.985 1.6C53.528 1.6 53.156 1.242 53.156 0.801C53.1593 0.603078 53.235 0.413228 53.3688 0.267308C53.5025 0.121388 53.6851 0.0295001 53.882 0.009C53.847 0.008 53.813 0 53.777 0C53.205 0 52.74 0.447 52.74 1C52.74 1.367 52.954 1.673 53.26 1.847V2.403C52.954 2.577 52.74 2.883 52.74 3.25C52.74 3.617 52.954 3.923 53.26 4.097V6.75L49.629 19V27H47.556V29L49.629 31V40.933H48.61C49.25 39.701 49.629 38.384 49.629 37C49.629 32.835 46.342 28.734 41.82 26.6C36.717 24.191 33.659 22.178 32.518 21.376V19.929C33.412 19.706 34.074 18.931 34.074 18C34.074 17.07 33.412 16.294 32.518 16.071V13.95C35.135 13.696 37.185 11.591 37.185 9C37.185 8.83 37.15 8.667 37.131 8.5C36.875 10.471 35.15 12 33.036 12C30.745 12 28.889 10.209 28.889 8C28.889 5.962 30.475 4.299 32.518 4.051C32.346 4.033 32.178 4 32 4C29.137 4 26.814 6.239 26.814 9C26.814 11.59 28.865 13.695 31.481 13.95V16.071C30.587 16.295 29.925 17.071 29.925 18C29.925 18.931 30.587 19.706 31.481 19.929V21.376C30.34 22.178 27.282 24.191 22.179 26.6C17.658 28.734 14.37 32.835 14.37 37C14.37 38.384 14.749 39.7 15.389 40.933H14.37V31L16.443 29V27H14.37V19L10.74 6.75V4.097C11.046 3.923 11.26 3.617 11.26 3.25C11.26 2.883 11.046 2.577 10.74 2.403V1.847C11.046 1.673 11.26 1.367 11.26 1C11.26 0.967 11.253 0.933 11.25 0.9C11.221 1.09608 11.122 1.27502 10.9712 1.40371C10.8205 1.5324 10.6282 1.60213 10.43 1.6C9.972 1.6 9.601 1.242 9.601 0.801C9.60433 0.603078 9.68003 0.413228 9.81379 0.267308C9.94755 0.121388 10.1301 0.0295001 10.327 0.009C10.291 0.008 10.258 0 10.223 0C9.648 0 9.186 0.447 9.186 1C9.186 1.367 9.4 1.673 9.705 1.847V2.404C9.399 2.577 9.186 2.883 9.186 3.25C9.186 3.617 9.4 3.923 9.705 4.097V6.75L6.074 19V27H4V29L6.074 31V64H57.927V31L60 29V27H57.927ZM12.755 62.399H7.689V31H12.754L12.755 62.399ZM12.755 27H11.778V24.408C12.096 24.107 12.297 23.717 12.297 23.285C12.297 22.691 11.91 22.104 11.378 21.801C10.597 21.353 10.223 21 10.223 21C10.223 21 9.847 21.353 9.067 21.801C8.535 22.105 8.149 22.692 8.149 23.285C8.149 23.716 8.348 24.107 8.667 24.408V27H7.689V19.23L10.222 10.682L12.754 19.23L12.755 27ZM14.391 42.533H49.61V62.399H37.187V59.555C37.861 58.673 38.222 57.64 38.222 56.571C38.222 54.712 37.104 52.873 35.371 51.88C34.086 51.148 33.45 50.571 33.45 50.571L32.011 49.234L30.562 50.56C30.555 50.567 29.918 51.145 28.627 51.881C26.897 52.872 25.778 54.711 25.778 56.57C25.778 57.639 26.139 58.673 26.814 59.554V62.398H14.391V42.533ZM28.889 62.399V58.814C28.25 58.216 27.853 57.43 27.853 56.571C27.853 55.382 28.624 54.21 29.688 53.6C31.249 52.708 32 52 32 52C32 52 32.751 52.708 34.313 53.601C35.376 54.21 36.148 55.382 36.148 56.572C36.148 57.431 35.751 58.218 35.111 58.815V62.4L28.889 62.399ZM56.311 62.399H51.246V31H56.311V62.399ZM56.311 27H55.334V24.408C55.652 24.107 55.853 23.717 55.853 23.285C55.853 22.691 55.466 22.104 54.934 21.801C54.152 21.353 53.777 21 53.777 21C53.777 21 53.402 21.353 52.622 21.801C52.09 22.105 51.703 22.692 51.703 23.285C51.703 23.716 51.903 24.107 52.222 24.408V27H51.245V19.23L53.777 10.682L56.31 19.23L56.311 27Z" fill="#393939"/>
<path d="M22.8083 46.1489C22.3013 45.8569 22.0413 45.6329 22.0383 45.6329L22.0403 45.6349L20.6123 44.3359L19.1673 45.6129C19.1643 45.6149 18.9033 45.8439 18.3753 46.1479C17.2023 46.8219 16.4443 48.0789 16.4443 49.3509C16.4443 49.9849 16.6243 50.5989 16.9633 51.1439V55.0659H24.2223V51.1439C24.5602 50.6068 24.7401 49.9855 24.7413 49.3509C24.7403 48.0799 23.9833 46.8229 22.8083 46.1489ZM22.1483 50.4759V53.0679H19.0373V50.4759C18.7193 50.1739 18.5183 49.7839 18.5183 49.3529C18.5183 48.7589 18.9053 48.1719 19.4373 47.8689C20.2163 47.4209 20.5923 47.0679 20.5923 47.0679C20.5923 47.0679 20.9663 47.4209 21.7473 47.8689C22.2783 48.1729 22.6653 48.7599 22.6653 49.3529C22.6663 49.7829 22.4683 50.1739 22.1483 50.4759ZM39.7783 55.0669H47.0373V51.1449C47.3752 50.6078 47.5551 49.9865 47.5563 49.3519C47.5563 48.0799 46.7983 46.8229 45.6243 46.1489C45.1153 45.8569 44.8553 45.6329 44.8533 45.6329L44.8543 45.6349L43.4273 44.3359L41.9823 45.6129C41.9793 45.6149 41.7183 45.8439 41.1913 46.1479C40.0163 46.8219 39.2593 48.0789 39.2593 49.3509C39.2593 49.9849 39.4403 50.5989 39.7783 51.1439V55.0669ZM42.2523 47.8679C43.0323 47.4199 43.4073 47.0669 43.4073 47.0669C43.4073 47.0669 43.7823 47.4199 44.5623 47.8679C45.0943 48.1719 45.4823 48.7589 45.4823 49.3519C45.4823 49.7829 45.2813 50.1729 44.9623 50.4749V53.0669H41.8513V50.4749C41.5323 50.1729 41.3333 49.7829 41.3333 49.3519C41.3343 48.7589 41.7213 48.1719 42.2523 47.8679Z" fill="#393939"/>
</svg>
