<svg width="64" height="64" viewBox="0 0 64 64" fill="none" xmlns="http://www.w3.org/2000/svg">
<g clip-path="url(#clip0_20_161)">
<path d="M31.9997 5.33325C46.7277 5.33325 58.6663 17.2719 58.6663 31.9999C58.6663 46.7279 46.7277 58.6666 31.9997 58.6666C17.2717 58.6666 5.33301 46.7279 5.33301 31.9999C5.33301 17.2719 17.2717 5.33325 31.9997 5.33325ZM31.9997 10.6666C26.3417 10.6666 20.9155 12.9142 16.9147 16.915C12.914 20.9157 10.6663 26.342 10.6663 31.9999C10.6663 37.6579 12.914 43.0841 16.9147 47.0849C20.9155 51.0856 26.3417 53.3332 31.9997 53.3332C37.6576 53.3332 43.0838 51.0856 47.0846 47.0849C51.0854 43.0841 53.333 37.6579 53.333 31.9999C53.333 26.342 51.0854 20.9157 47.0846 16.915C43.0838 12.9142 37.6576 10.6666 31.9997 10.6666ZM31.9997 15.9999C32.6528 16 33.2832 16.2398 33.7713 16.6738C34.2594 17.1078 34.5713 17.7059 34.6477 18.3546L34.6663 18.6666V30.8959L41.885 38.1146C42.3633 38.5945 42.6409 39.2384 42.6616 39.9156C42.6823 40.5928 42.4444 41.2525 41.9963 41.7607C41.5483 42.2688 40.9235 42.5874 40.2491 42.6516C39.5746 42.7159 38.901 42.521 38.365 42.1066L38.1143 41.8852L30.1143 33.8852C29.6999 33.4704 29.4337 32.9306 29.357 32.3492L29.333 31.9999V18.6666C29.333 17.9593 29.614 17.2811 30.1141 16.781C30.6142 16.2809 31.2924 15.9999 31.9997 15.9999Z" fill="white"/>
</g>
<defs>
<clipPath id="clip0_20_161">
<rect width="64" height="64" fill="white"/>
</clipPath>
</defs>
</svg>
